name symmetric_stride_kinematics_HTD_Minus_2.mot
datacolumns 38
datarows 11
range 1.01544414 1.02618733
endheader
                time	/jointset/ground_pelvis/pelvis_tilt/value	/jointset/ground_pelvis/pelvis_list/value	/jointset/ground_pelvis/pelvis_rotation/value	/jointset/ground_pelvis/pelvis_tx/value	/jointset/ground_pelvis/pelvis_ty/value	/jointset/ground_pelvis/pelvis_tz/value	/jointset/hip_r/hip_flexion_r/value	/jointset/hip_r/hip_adduction_r/value	/jointset/hip_r/hip_rotation_r/value	/jointset/knee_r/knee_angle_r/value	/jointset/ankle_r/ankle_angle_r/value	/jointset/subtalar_r/subtalar_angle_r/value	/jointset/mtp_r/mtp_angle_r/value	/jointset/hip_l/hip_flexion_l/value	/jointset/hip_l/hip_adduction_l/value	/jointset/hip_l/hip_rotation_l/value	/jointset/knee_l/knee_angle_l/value	/jointset/ankle_l/ankle_angle_l/value	/jointset/subtalar_l/subtalar_angle_l/value	/jointset/mtp_l/mtp_angle_l/value	/jointset/back/lumbar_extension/value	/jointset/back/lumbar_bending/value	/jointset/back/lumbar_rotation/value	/jointset/acromial_r/arm_flex_r/value	/jointset/acromial_r/arm_add_r/value	/jointset/acromial_r/arm_rot_r/value	/jointset/elbow_r/elbow_flex_r/value	/jointset/radioulnar_r/pro_sup_r/value	/jointset/radius_hand_r/wrist_flex_r/value	/jointset/radius_hand_r/wrist_dev_r/value	/jointset/acromial_l/arm_flex_l/value	/jointset/acromial_l/arm_add_l/value	/jointset/acromial_l/arm_rot_l/value	/jointset/elbow_l/elbow_flex_l/value	/jointset/radioulnar_l/pro_sup_l/value	/jointset/radius_hand_l/wrist_flex_l/value	/jointset/radius_hand_l/wrist_dev_l/value	
          1.01544414	         -8.30806278	          3.39145474	          5.97157847	         11.82776352	          0.99520911	          0.30359644	         30.99637474	        -12.29253961	          3.44195052	       -118.53295332	         -5.45882029	        -16.99420481	         -3.54914029	         35.06887046	          2.86584297	          0.41335909	        -18.26429975	        -21.13472763	        -12.27936416	          6.55308568	        -18.63238132	         -7.52389493	          4.45239065	         -0.45028262	        -19.25387146	        -13.54317553	         73.51448874	         54.95160605	         -1.06665943	          5.83324920	         -6.09382105	        -24.64959816	        -14.06151972	        109.43689632	         80.50934417	        -23.37887872	          5.83500747	
          1.01607392	         -8.39062989	          3.33871824	          6.22662110	         11.83516488	          0.99472151	          0.30385607	         31.43524972	        -12.38527018	          3.34755422	       -118.84887536	         -5.23437594	        -17.01329339	         -3.13114589	         34.76203265	          2.95053938	          0.40742943	        -18.06202696	        -20.68585785	        -12.06950638	          6.23741859	        -18.50866683	         -7.43427762	          4.23621998	         -0.90235735	        -19.02086319	        -13.35157331	         73.39033070	         55.32392428	         -1.14295669	          5.89325916	         -5.15638994	        -24.51957348	        -14.00113609	        109.83263582	         80.22951602	        -23.27926184	          5.91038195	
          1.01806378	         -8.65062714	          3.15819835	          7.04968865	         11.85858386	          0.99309561	          0.30468900	         32.82286917	        -12.69444108	          3.04126779	       -119.83170784	         -4.53690949	        -17.06268243	         -1.94377799	         33.78128138	          3.20746340	          0.47208632	        -17.44523984	        -19.08761115	        -11.52350338	          5.27296588	        -18.10604515	         -7.14118145	          3.52383154	         -2.34358101	        -18.28364380	        -12.68301768	         73.06945595	         56.40988753	         -1.36212978	          6.12703500	         -2.19693236	        -24.07814891	        -13.82724548	        111.06727714	         79.47413917	        -22.97857315	          6.10572940	
          1.01950591	         -8.83708083	          3.01258390	          7.66012590	         11.87558825	          0.99183909	          0.30529887	         33.82887392	        -12.93071034	          2.81239144	       -120.52875453	         -4.04492520	        -17.09682085	         -1.20615959	         33.06120112	          3.37789987	          0.59403986	        -17.03240800	        -17.78996425	        -11.25644792	          4.68576516	        -17.80379522	         -6.91876749	          2.98235546	         -3.40163578	        -17.74863617	        -12.14130602	         72.90189520	         57.16460440	         -1.50879495	          6.31696619	         -0.05565953	        -23.73402525	        -13.71478538	        111.95101763	         78.99710638	        -22.76539063	          6.22550866	
          1.01950591	         -8.83708083	          3.01258390	          7.66012590	         11.87558825	          0.99183909	          0.30529887	         33.82887392	        -12.93071034	          2.81239144	       -120.52875453	         -4.04492520	        -17.09682085	         -1.20615959	         33.06120112	          3.37789987	          0.59403986	        -17.03240800	        -17.78996425	        -11.25644792	          4.68576516	        -17.80379522	         -6.91876749	          2.98235546	         -3.40163578	        -17.74863617	        -12.14130602	         72.90189520	         57.16460440	         -1.50879495	          6.31696619	         -0.05565953	        -23.73402525	        -13.71478538	        111.95101763	         78.99710638	        -22.76539063	          6.22550866	
          1.02013570	         -8.91789075	          2.94493508	          7.92970100	         11.88302207	          0.99127046	          0.30556538	         34.26844545	        -13.03649136	          2.71103953	       -120.82902403	         -3.83375374	        -17.11292090	         -0.92127105	         32.74479371	          3.44693177	          0.66556732	        -16.86397601	        -17.20440715	        -11.18086973	          4.47523044	        -17.66908571	         -6.81910976	          2.73996588	         -3.86774237	        -17.51491843	        -11.89034607	         72.84548682	         57.49663024	         -1.57168117	          6.39957198	          0.87819708	        -23.57873958	        -13.66819106	        112.33470822	         78.80204974	        -22.67183363	          6.27517027	
          1.02212555	         -9.16939945	          2.71058848	          8.79327072	         11.90654118	          0.98939669	          0.30640485	         35.65621845	        -13.37674302	          2.38130614	       -121.75966653	         -3.18723978	        -17.18429586	         -0.04880031	         31.74201676	          3.63581733	          0.96067805	        -16.40814032	        -15.22736468	        -11.05382835	          3.97956037	        -17.23327481	         -6.49009998	          1.95117105	         -5.35935887	        -16.77638896	        -11.04946124	         72.73659788	         58.52518821	         -1.76882963	          6.66279077	          3.82044418	        -23.06946715	        -13.53283241	        113.53850603	         78.29878540	        -22.37503693	          6.39964220	
          1.02356769	         -9.33781138	          2.52055638	          9.42578831	         11.92361855	          0.98798387	          0.30700360	         36.64978149	        -13.62405533	          2.13383760	       -122.41464510	         -2.73585345	        -17.25959965	          0.61918731	         31.00383807	          3.73726739	          1.22482363	        -16.17129376	        -13.63375727	        -11.02766385	          3.78129651	        -16.91904691	         -6.23661130	          1.36209300	         -6.45906905	        -16.24125305	        -10.40393154	         72.72351737	         59.22783929	         -1.90806805	          6.84645983	          5.94436629	        -22.68297405	        -13.45298411	        114.40643948	         78.04215012	        -22.15734135	          6.45588292	
          1.02356769	         -9.33781138	          2.52055638	          9.42578831	         11.92361855	          0.98798387	          0.30700360	         36.64978149	        -13.62405533	          2.13383760	       -122.41464510	         -2.73585345	        -17.25959965	          0.61918731	         31.00383807	          3.73726739	          1.22482363	        -16.17129376	        -13.63375727	        -11.02766385	          3.78129651	        -16.91904691	         -6.23661130	          1.36209300	         -6.45906905	        -16.24125305	        -10.40393154	         72.72351737	         59.22783929	         -1.90806805	          6.84645983	          5.94436629	        -22.68297405	        -13.45298411	        114.40643948	         78.04215012	        -22.15734135	          6.45588292	
          1.02419747	         -9.40524030	          2.43199693	          9.70268950	         11.93108501	          0.98735710	          0.30726092	         37.07777421	        -13.73094292	          2.02351840	       -122.69492076	         -2.54240225	        -17.29963512	          0.93082978	         30.67653673	          3.77033885	          1.35067283	        -16.09751831	        -12.88547182	        -11.02462669	          3.73715271	        -16.78499233	         -6.12138605	          1.10134078	         -6.94457701	        -16.00753546	        -10.11569170	         72.73661465	         59.51306709	         -1.97068852	          6.93048417	          6.86959750	        -22.50927452	        -13.42518123	        114.78558615	         77.95431638	        -22.06187356	          6.47317216	
          1.02618733	         -9.58378128	          2.14096799	         10.56752510	         11.95471397	          0.98536294	          0.30804033	         38.39958500	        -14.06449603	          1.68211623	       -123.55750395	         -1.93208192	        -17.44021713	          1.90394918	         29.60772351	          3.82819334	          1.74948930	        -15.98682460	        -10.47054790	        -11.06891165	          3.76721001	        -16.38730578	         -5.75159289	          0.27244275	         -8.49388677	        -15.26900557	         -9.18434143	         72.83843079	         60.51096273	         -2.16843577	          7.20096580	          9.78417411	        -21.94675165	        -13.36854682	        115.98478796	         77.81268884	        -21.75434124	          6.47897151	
